<svg width="153" height="49" viewBox="0 0 153 49" fill="none" xmlns="http://www.w3.org/2000/svg">
<rect x="0.900391" y="0.566406" width="152" height="48" rx="4" fill="#007AFF"/>
<path d="M33.9004 28.7362L29.7304 24.5662L28.3104 25.9762L33.9004 31.5662L45.9004 19.5662L44.4904 18.1562L33.9004 28.7362Z" fill="white"/>
<path d="M64.4788 18.4304V19.8544H60.1588V23.2304H63.9988V24.6384H60.1588V28.1424H64.4788V29.5664H58.3348V18.4304H64.4788ZM68.5494 20.7504V22.1424C69.1361 21.1184 70.0747 20.6064 71.3654 20.6064C72.3574 20.6064 73.1734 20.9371 73.8134 21.5984C74.4641 22.2597 74.7894 23.1824 74.7894 24.3664V29.5664H72.9814V24.6384C72.9814 23.8491 72.7841 23.2464 72.3894 22.8304C71.9947 22.4037 71.4561 22.1904 70.7734 22.1904C70.0907 22.1904 69.5467 22.4037 69.1414 22.8304C68.7467 23.2464 68.5494 23.8491 68.5494 24.6384V29.5664H66.7254V20.7504H68.5494ZM76.076 20.7504H78.028L80.524 27.9344L83.02 20.7504H84.988L81.628 29.5664H79.42L76.076 20.7504ZM92.0628 27.3744C92.5961 26.8411 92.8628 26.0997 92.8628 25.1504C92.8628 24.2011 92.6014 23.4651 92.0788 22.9424C91.5668 22.4091 90.9428 22.1424 90.2068 22.1424C89.4708 22.1424 88.8521 22.4091 88.3508 22.9424C87.8494 23.4651 87.5988 24.2064 87.5988 25.1664C87.5988 26.1157 87.8441 26.8571 88.3348 27.3904C88.8254 27.9131 89.4334 28.1744 90.1588 28.1744C90.8948 28.1744 91.5294 27.9077 92.0628 27.3744ZM90.1588 29.7104C88.8788 29.7104 87.8228 29.2944 86.9908 28.4624C86.1588 27.6197 85.7428 26.5211 85.7428 25.1664C85.7428 23.8011 86.1694 22.7024 87.0228 21.8704C87.8868 21.0277 88.9588 20.6064 90.2388 20.6064C91.5188 20.6064 92.5854 21.0277 93.4388 21.8704C94.3028 22.7024 94.7348 23.7957 94.7348 25.1504C94.7348 26.5051 94.2921 27.6037 93.4068 28.4464C92.5321 29.2891 91.4494 29.7104 90.1588 29.7104ZM98.9699 29.4224L95.4979 20.7504H97.5299L100.01 27.4704L102.586 20.7504H104.474L99.0659 33.7104H97.1779L98.9699 29.4224ZM109.562 29.7104C108.282 29.7104 107.242 29.2944 106.442 28.4624C105.642 27.6304 105.242 26.5264 105.242 25.1504C105.242 23.7744 105.648 22.6757 106.458 21.8544C107.269 21.0224 108.314 20.6064 109.594 20.6064C110.885 20.6064 111.93 21.0064 112.73 21.8064C113.53 22.5957 113.93 23.6304 113.93 24.9104C113.93 25.2197 113.909 25.5077 113.866 25.7744H107.114C107.157 26.5104 107.402 27.0971 107.85 27.5344C108.309 27.9611 108.88 28.1744 109.562 28.1744C110.554 28.1744 111.253 27.7637 111.658 26.9424H113.626C113.36 27.7531 112.874 28.4197 112.17 28.9424C111.466 29.4544 110.597 29.7104 109.562 29.7104ZM112.026 24.5264C112.016 23.8011 111.776 23.2251 111.306 22.7984C110.837 22.3611 110.266 22.1424 109.594 22.1424C108.922 22.1424 108.357 22.3611 107.898 22.7984C107.45 23.2251 107.194 23.8011 107.13 24.5264H112.026ZM117.549 20.7504V22.2864C118.115 21.1664 118.995 20.6064 120.189 20.6064V22.4944H119.725C119.011 22.4944 118.467 22.6757 118.093 23.0384C117.731 23.4011 117.549 24.0304 117.549 24.9264V29.5664H115.725V20.7504H117.549Z" fill="white"/>
</svg>
